<svg width="31" height="31" viewBox="0 0 31 31" fill="none" xmlns="http://www.w3.org/2000/svg">
<path d="M27.8333 6.24998H21.6666V3.16665C21.6666 1.47081 20.2791 0.083313 18.5833 0.083313H12.4166C10.7208 0.083313 9.33325 1.47081 9.33325 3.16665V6.24998H3.16659C1.47075 6.24998 0.083252 7.63748 0.083252 9.33331V27.8333C0.083252 29.5291 1.47075 30.9166 3.16659 30.9166H27.8333C29.5291 30.9166 30.9166 29.5291 30.9166 27.8333V9.33331C30.9166 7.63748 29.5291 6.24998 27.8333 6.24998ZM12.4166 3.16665H18.5833V6.24998H12.4166V3.16665ZM27.8333 27.8333H3.16659V9.33331H27.8333V27.8333Z" fill="#03A9F5"/>
<path d="M17.0416 12.4166H13.9583V17.0416H9.33325V20.125H13.9583V24.75H17.0416V20.125H21.6666V17.0416H17.0416V12.4166Z" fill="#03A9F5"/>
</svg>
