<svg width="35" height="25" viewBox="0 0 35 25" fill="none" xmlns="http://www.w3.org/2000/svg">
<path d="M28.2917 15.5834V3.25002C28.2917 1.55419 26.9042 0.166687 25.2084 0.166687H3.62508C1.92925 0.166687 0.541748 1.55419 0.541748 3.25002V15.5834C0.541748 17.2792 1.92925 18.6667 3.62508 18.6667H25.2084C26.9042 18.6667 28.2917 17.2792 28.2917 15.5834ZM25.2084 15.5834H3.62508V3.25002H25.2084V15.5834ZM14.4167 4.79169C11.8576 4.79169 9.79175 6.85752 9.79175 9.41669C9.79175 11.9759 11.8576 14.0417 14.4167 14.0417C16.9759 14.0417 19.0417 11.9759 19.0417 9.41669C19.0417 6.85752 16.9759 4.79169 14.4167 4.79169ZM34.4584 4.79169V21.75C34.4584 23.4459 33.0709 24.8334 31.3751 24.8334H5.16675C5.16675 23.2917 5.16675 23.4459 5.16675 21.75H31.3751V4.79169C33.0709 4.79169 32.9167 4.79169 34.4584 4.79169Z" fill="#FED600"/>
</svg>
